<?xml version="1.0" encoding="UTF-8"?>
<svg id="Layer_1" data-name="Layer 1" xmlns="http://www.w3.org/2000/svg" viewBox="0 0 420.14 393.03">
  <defs>
    <style>
      .cls-1 {
        fill: #06213c;
      }

      .cls-2 {
        fill: #00e7a1;
      }
    </style>
  </defs>
  <rect class="cls-1" width="420.14" height="393.03"/>
  <path class="cls-2" d="M179.17,280.61c15.09-.78,29.14-4.85,37.2-18.48,5.03-8.52,7.05-18.75,13.18-26.59-6.21.41-12.52-1.11-18.34-3.3-15.85-5.97-26.18-20.19-30.26-36.24,7.26,2.45,14.86,3.52,22.43,4.52,4.55,11.54,16.62,17.42,28.59,18.04,9.74.5,19.6-3.9,28.96-5.99,13.75-3.07,23.36-2.36,36.87,1.15,1.35.35,5.4,2.09,6.15,2.06,1.26-.04,11.81-3.1,13.46-3.74,2.45-.96,3.06-1.8,4.31-4.08,4-7.29,4.78-14.98-1.16-21.42l-33.55-9.32c-5.33-7.03-10.6-14.95-16.57-21.43-3-3.26-4.17-3.59-8.28-4.97-5.87-1.97-12.41-3.53-18.45-4.97-6.44-1.54-20.86-5.43-26.77-5.53-4.17-.07-10.14,1.41-14.56,1.78-19.18,1.62-36.14,2.36-55.1-1.91-4.46-1-8.79-2.58-13.17-3.84,4.93,11.94,17,20.58,28.93,24.75,9.02,3.15,19.45,5.08,28.98,4.59,1.22,6.56,3.36,12.79,6.16,18.82-16.64-.09-34.27-1.98-49.21-9.68-3.76,3.33-7.91,6.68-11.12,10.56-3.29,3.98-5.65,8.69-9.04,12.61-12.16,14.05-35.51,25.95-53.92,17.66-.51-.23-2.84-1.13-2.22-1.97.97-.13,1.81-.64,2.61-1.15,13.89-8.85,27.27-18.58,40.25-28.69-3.42.1-6.84.15-10.33-.27-9.92-1.19-20.74-5.01-27.67-12.31l53.03-7.96c.64-.56-3.74-3.51-4.21-3.96-13.12-12.59-18.97-31.18-19.65-49.06,26.18,10,54.13,14.84,82.19,15.46-4.42-4.09-8.49-8.06-11.85-13.11-1.93-2.9-4.53-6.8-4.73-10.3,15.95,6.02,32.06,11.88,48.3,17.1,8.12,2.61,17.12,5.65,25.28,7.87.6.16,1.15.31,1.77.21l-4.41-15.02c2.78.99,5.57,2.22,8.25,3.46,24.16,11.16,29.94,22.78,44.15,43.35,4.22,6.11,5.72,5.71,12.56,7.77,10.3,3.11,21.65,5.06,31.71,8.5,4.94,1.69,7.63,2.82,7.63,8.71-1.72,15.42-10.22,29.16-14.99,43.73-2.27.24-4.5.06-6.79.38-7.21.98-14.97,3.81-22.18,5.17-18.4-8.66-41.93-8.82-55.47,8.21-8.88,11.17-11.39,27.01-20.56,37.78-7.64,8.97-16.46,12.37-28.17,10.86-5.57-.72-20.23-9.77-20.23-9.77ZM335.61,188.03c-.2.84.16,6.19,1.11,6.18,1.57-2.38,3.68-7.21-1.11-6.18ZM306.22,268.02c.98-.12,5.71-2.64,6.86-3.31,10.11-5.87,15.73-14.88,15.9-26.74-4.98,1.53-9.86,3.48-14.93,4.73-1.69.42-4.44,1.32-6.08,1.23-2.99-.16-12.69-4.35-16.99-5.31-11.58-2.57-19.71-2.63-28.96,5.52-.53.46-4.69,4.42-4.18,4.87,8.88.18,18.21,2.04,26.79,4.36M267.11,170.59c-6.08-6.61-18.2-6.61-26.06-10.4,1.79,6.3,3.62,14.61,10.3,17.31.75.3,3.48,1.25,4.05,1.25h17.01c-1.78-2.64-3.14-5.8-5.32-8.16ZM336.72,194.21c1.57-2.38,3.68-7.21-1.11-6.18-.2.84.16,6.19,1.11,6.18Z"/>
</svg>