<?xml version="1.0" encoding="UTF-8"?>
<svg id="Layer_1" data-name="Layer 1" xmlns="http://www.w3.org/2000/svg" viewBox="0 0 1925.82 393.03">
  <defs>
    <style>
      .cls-1 {
        fill: #fefefd;
      }

      .cls-2 {
        fill: #fff;
      }

      .cls-3 {
        fill: #00e7a1;
      }
    </style>
  </defs>
  <path class="cls-3" d="M196.34,347.08c26.36-1.36,50.92-8.47,64.99-32.28,8.79-14.88,12.31-32.76,23.02-46.46-10.84.71-21.87-1.94-32.05-5.77-27.68-10.43-45.73-35.27-52.87-63.32,12.68,4.29,25.97,6.15,39.19,7.89,7.95,20.16,29.04,30.43,49.94,31.51,17.01.88,34.25-6.81,50.59-10.46,24.03-5.37,40.81-4.12,64.41,2,2.37.61,9.43,3.65,10.74,3.61,2.2-.08,20.64-5.41,23.52-6.54,4.29-1.68,5.34-3.14,7.53-7.14,6.98-12.74,8.35-26.18-2.02-37.42l-58.61-16.28c-9.32-12.29-18.52-26.12-28.95-37.44-5.25-5.7-7.28-6.27-14.47-8.69-10.25-3.44-21.68-6.17-32.24-8.68-11.26-2.68-36.44-9.49-46.76-9.66-7.28-.12-17.71,2.46-25.44,3.11-33.51,2.83-63.13,4.12-96.26-3.33-7.79-1.75-15.36-4.51-23.02-6.7,8.62,20.86,29.71,35.96,50.55,43.24,15.75,5.5,33.99,8.88,50.62,8.03,2.14,11.46,5.87,22.34,10.77,32.87-29.08-.16-59.87-3.47-85.97-16.9-6.56,5.82-13.82,11.68-19.42,18.44-5.75,6.95-9.87,15.18-15.8,22.03-21.25,24.54-62.04,45.34-94.19,30.85-.89-.4-4.95-1.97-3.87-3.45,1.69-.22,3.16-1.11,4.57-2.01,24.26-15.46,47.64-32.45,70.31-50.12-5.98.18-11.94.26-18.04-.48-17.34-2.08-36.24-8.75-48.35-21.51l92.64-13.91c1.11-.98-6.53-6.14-7.35-6.92-22.93-22-33.14-54.47-34.33-85.72,45.74,17.47,94.57,25.93,143.59,27.01-7.72-7.15-14.83-14.07-20.7-22.91-3.37-5.07-7.92-11.87-8.26-17.99,27.87,10.52,56.01,20.75,84.38,29.88,14.19,4.57,29.91,9.86,44.16,13.74,1.04.28,2,.55,3.09.37l-7.71-26.24c4.85,1.74,9.74,3.87,14.42,6.04,42.2,19.51,52.3,39.8,77.14,75.73,7.37,10.67,10,9.97,21.94,13.58,18,5.44,37.83,8.84,55.4,14.85,8.62,2.95,13.34,4.93,13.34,15.22-3.01,26.94-17.86,50.94-26.19,76.39-3.96.42-7.86.11-11.86.66-12.59,1.72-26.16,6.65-38.76,9.04-32.14-15.13-73.26-15.42-96.91,14.33-15.52,19.52-19.9,47.19-35.91,66-13.35,15.68-28.75,21.62-49.21,18.98-9.73-1.26-35.35-17.06-35.35-17.06ZM469.66,185.34c-.36,1.47.28,10.82,1.93,10.8,2.74-4.15,6.42-12.6-1.93-10.8ZM418.31,325.08c1.71-.22,9.97-4.6,11.99-5.78,17.67-10.26,27.48-26,27.78-46.72-8.69,2.68-17.22,6.08-26.08,8.27-2.96.73-7.76,2.3-10.62,2.15-5.23-.28-22.18-7.6-29.69-9.27-20.24-4.49-34.44-4.59-50.6,9.64-.92.81-8.2,7.72-7.31,8.51,15.51.31,31.82,3.57,46.81,7.62M349.97,154.87c-10.62-11.55-31.8-11.54-45.52-18.16,3.12,11,6.32,25.52,18,30.24,1.32.53,6.09,2.18,7.08,2.18h29.72c-3.11-4.61-5.49-10.14-9.29-14.26ZM471.59,196.14c2.74-4.15,6.42-12.6-1.93-10.8-.36,1.47.28,10.82,1.93,10.8Z"/>
  <g>
    <g>
      <path class="cls-1" d="M1261.03,124.69h66.86c8.72,0,16.23,3.31,22.53,9.93,6.13,6.78,9.2,14.86,9.2,24.22,0,8.88-1.86,16.55-5.57,23.01-3.55,6.46-8.16,10.17-13.81,11.14,7.43,1.29,13.65,5.25,18.65,11.87,4.84,6.62,7.27,14.29,7.27,23.01,0,11.14-3.72,20.67-11.14,28.58-7.59,7.91-16.63,11.87-27.13,11.87h-66.86V124.69ZM1325.94,189.37c6.62,0,12.27-2.99,16.96-8.96,4.68-5.97,7.02-13.16,7.02-21.56,0-6.78-2.34-12.6-7.02-17.44-4.69-4.84-10.34-7.27-16.96-7.27h-55.23v55.23h55.23ZM1325.94,259.13c8.4,0,15.58-3.07,21.56-9.21,5.97-6.13,8.96-13.48,8.96-22.04s-2.99-15.18-8.96-20.83c-5.98-5.81-13.16-8.72-21.56-8.72h-55.23v60.8h55.23Z"/>
      <path class="cls-1" d="M1394.92,268.34V124.69h93.75v9.45h-84.06v55.23h76.79v8.96h-76.79v60.8h84.06v9.21h-93.75Z"/>
      <path class="cls-1" d="M1499.75,268.34l56.93-143.65h12.11l56.2,143.65h-11.14l-18.41-46.02h-66.37l-18.41,46.02h-10.9ZM1591.8,213.11l-29.55-77.27-30.28,77.27h59.83Z"/>
      <path class="cls-1" d="M1653.99,257.92c-9.85-9.21-14.78-20.43-14.78-33.67h9.69c0,10.66,3.96,19.78,11.87,27.37,7.91,7.59,17.44,11.38,28.58,11.38,12.11,0,22.53-3.23,31.25-9.69,8.56-6.46,12.84-14.29,12.84-23.5,0-7.91-3.8-14.53-11.39-19.86-7.43-5.33-17.44-8.56-30.04-9.69-15.34-1.29-27.62-5.65-36.82-13.08-9.21-7.43-13.81-16.55-13.81-27.37s4.68-19.78,14.05-27.37c9.36-7.59,20.67-11.38,33.91-11.38,14.21,0,26.4,3.96,36.58,11.87,10.01,7.91,15.02,17.44,15.02,28.58h-9.69c0-8.56-4.12-15.9-12.35-22.04-8.08-6.14-17.93-9.21-29.55-9.21-10.5,0-19.54,2.91-27.13,8.72-7.43,5.66-11.14,12.6-11.14,20.83s3.88,14.86,11.63,20.35c7.91,5.49,18.33,8.8,31.25,9.93,14.86,1.29,26.81,5.57,35.85,12.84,8.88,7.27,13.32,16.23,13.32,26.89,0,11.63-5.25,21.56-15.75,29.79-10.5,8.24-23.17,12.35-38.03,12.35-13.89,0-25.68-4.68-35.37-14.05Z"/>
      <path class="cls-1" d="M1805.57,268.34v-134.2h-49.17v-9.45h108.52v9.45h-49.66v134.2h-9.69Z"/>
    </g>
    <g>
      <polygon class="cls-2" points="977.12 122.54 937.93 122.54 910.72 176.93 882.42 122.54 844.32 122.54 881.36 195.28 842.14 270.59 880.24 270.59 910.72 211.85 940.11 270.59 979.3 270.59 940.25 195.49 977.12 122.54"/>
      <path class="cls-2" d="M736.65,122.45l-63.13.2-25.14,18.4v129.54h32.66l2.18-45.72h57.69l24.99-25.08-2.01-56.67-27.24-20.66ZM731.11,191.12c0,.38-5.06,5.44-5.44,5.44h-41.92l-.53-45.72h42.45c.39,0,5.44,5.06,5.44,5.44v34.83Z"/>
      <path class="cls-2" d="M997.8,139.96l-.68,111.71c.49,1.59,20.98,18.91,22.45,18.91h81.64v-28.3h-71.84v-32.66h57.69l-.27-28.3h-57.42v-30.48h71.84v-28.3h-81.64c.06,0-21.77,17.42-21.77,17.42Z"/>
      <path class="cls-2" d="M1157.82,242.28v-119.74h-34.83v127.36c3.3,3.78,22.03,20.68,25.04,20.68h77.29v-28.3h-67.49Z"/>
      <polygon class="cls-2" points="789.89 170.44 789.89 270.59 824.72 270.59 824.72 173.71 821.46 170.44 789.89 170.44"/>
      <rect class="cls-3" x="789.89" y="122.54" width="34.83" height="28.3"/>
    </g>
  </g>
</svg>